<svg width="220" height="63" viewBox="0 0 220 63" fill="none" xmlns="http://www.w3.org/2000/svg">
<g clip-path="url(#clip0)">
<path d="M19.7699 32.3131H10.4385L10.2804 32.4715C10.1222 32.6299 10.4385 32.7883 10.4385 32.7883C12.3364 32.9467 13.1272 33.5803 13.1272 35.4811V38.649C13.1272 40.7082 13.2854 40.7082 10.7549 40.8666C4.27031 41.1834 5.06111 33.2635 5.06111 31.2043C5.06111 25.9772 6.01006 21.7005 10.5967 21.8589C13.918 21.8589 15.9741 24.5516 16.9231 27.086C16.9231 27.086 17.0812 27.2444 17.2394 27.2444C17.3976 27.2444 17.5557 27.086 17.5557 27.086V20.9085L17.2394 20.5917C17.0812 20.4333 16.9231 20.7501 16.9231 20.7501C16.6068 21.5421 16.4486 21.8589 15.6578 21.8589C14.867 21.8589 12.8109 20.5917 10.1222 20.5917C3.95399 20.5917 0 25.3436 0 31.2043C0 36.4315 3.16319 41.817 10.4385 41.817C12.9691 41.817 16.1323 41.025 17.5557 39.9162V35.4811C17.5557 32.9467 18.0302 32.9467 19.7699 32.7883C19.7699 32.7883 19.9281 32.6299 19.7699 32.3131Z" fill="#35302C"/>
<path d="M29.2596 41.1833C27.678 41.0249 26.5709 40.7081 26.5709 38.8073V23.9179C26.5709 21.8588 27.8362 21.3836 29.2596 21.2252C29.2596 21.2252 29.4178 21.0668 29.4178 20.9084C29.4178 20.75 29.2596 20.75 29.2596 20.75H19.2956C19.2956 20.75 19.1374 20.75 19.1374 21.0668C19.1374 21.2252 19.2956 21.2252 19.2956 21.2252C20.5608 21.3836 21.9843 21.8588 21.9843 23.9179V38.8073C21.9843 40.7081 20.8772 41.0249 19.2956 41.1833L18.9792 41.3417C18.9792 41.5001 19.1374 41.6585 19.1374 41.6585H29.1015C29.1015 41.6585 29.2596 41.5001 29.2596 41.3417C29.4178 41.3417 29.2596 41.1833 29.2596 41.1833Z" fill="#35302C"/>
<path d="M38.4329 21.3835C34.3207 21.3835 33.2136 26.4522 33.2136 30.8873C33.2136 33.5801 34.0044 40.5496 38.591 40.5496C43.8103 40.5496 43.8103 33.5801 43.8103 30.8873C43.8103 26.4522 42.7032 21.3835 38.4329 21.3835ZM38.4329 20.4331C44.1266 20.4331 49.0296 24.393 49.0296 31.0457C49.0296 37.3816 44.6011 41.8168 38.4329 41.8168C32.2646 41.8168 27.8362 37.3816 27.8362 31.0457C27.8362 24.2346 32.7391 20.4331 38.4329 20.4331Z" fill="#35302C"/>
<path d="M55.5138 21.8588V30.729C59.3097 30.729 60.2586 30.4122 60.5749 26.2939C60.7331 24.2347 59.626 21.8588 57.2536 21.8588C55.672 21.8588 55.5138 21.8588 55.5138 21.8588ZM67.6921 41.1833C67.6921 41.1833 68.0084 41.3417 68.0084 41.5001C68.0084 41.6585 67.6921 41.8169 67.6921 41.8169H62.1565L56.3046 32.1546H55.5138V38.0153C55.5138 40.5497 56.1465 41.0249 58.0444 41.3417C58.0444 41.3417 58.3607 41.5001 58.3607 41.6585C58.3607 41.8169 58.0444 41.8169 58.0444 41.8169H48.2385C48.2385 41.8169 48.0803 41.8169 48.0803 41.5001C48.0803 41.3417 48.2385 41.3417 48.2385 41.3417C50.1364 41.0249 50.9272 40.5497 50.769 38.0153V24.0763C50.769 21.3836 49.8201 21.542 48.2385 21.3836C48.2385 21.3836 48.0803 21.3836 48.0803 21.0668C48.0803 20.9084 48.2385 20.75 48.2385 20.75H57.5699C59.626 20.75 65.3197 21.0668 65.3197 26.1355C65.3197 29.937 62.631 31.0458 61.0494 31.521L66.2687 40.2329C66.585 40.7081 67.0595 41.1833 67.6921 41.1833Z" fill="#35302C"/>
<path d="M85.5641 21.2253C86.8294 21.3837 87.9365 21.7005 87.9365 23.6013V38.649C87.9365 40.5498 87.1457 40.8666 85.5641 41.025C85.5641 41.025 85.406 41.025 85.406 41.1834C85.406 41.5002 85.5641 41.5002 85.5641 41.5002H102.171L102.962 35.0059L102.804 35.1643C102.487 35.1643 102.645 35.4811 102.645 35.4811C100.906 40.0746 99.4822 40.7082 95.0537 40.7082C93.3139 40.7082 92.6813 40.3914 92.6813 39.1242V31.6795C95.37 31.6795 96.7935 32.3131 97.1098 36.1146C97.1098 36.1146 97.1098 36.273 97.2679 36.273C97.4261 36.273 97.4261 36.1146 97.4261 36.1146V25.9772C97.4261 25.9772 97.4261 25.8188 97.2679 25.8188C96.9516 25.8188 97.1098 25.9772 97.1098 25.9772C96.6353 29.7787 95.2119 30.5707 92.6813 30.5707V21.8589C92.6813 21.8589 93.1558 21.8589 94.7374 21.8589C98.5332 21.8589 100.747 22.0173 101.38 26.4524C101.38 26.4524 101.38 26.6108 101.538 26.6108C101.696 26.6108 101.696 26.4524 101.696 26.4524V21.0669H85.5641L85.2478 21.2253H85.5641Z" fill="#35302C"/>
<path d="M116.089 41.1833C114.033 41.0249 113.242 40.5497 113.4 38.1737V21.7004C115.298 21.8588 118.936 20.75 119.41 25.8187C119.41 25.8187 119.41 25.9771 119.727 25.9771C119.885 25.9771 120.043 25.8187 120.043 25.8187V20.75H102.329V25.8187C102.329 25.8187 102.329 25.9771 102.645 25.9771C102.962 25.9771 102.962 25.8187 102.962 25.8187C103.436 21.2252 106.599 21.7004 108.972 21.7004V38.0153C108.972 40.5497 108.023 40.8665 106.283 41.0249C106.283 41.0249 105.967 41.0249 105.967 41.1833C105.967 41.3417 106.125 41.6585 106.125 41.6585H116.247C116.247 41.6585 116.405 41.5001 116.405 41.1833C116.247 41.1833 116.089 41.1833 116.089 41.1833Z" fill="#35302C"/>
<path d="M86.0387 32.3129H76.8655C76.8655 32.3129 76.7073 32.3129 76.7073 32.4713C76.7073 32.6297 76.8655 32.7881 76.8655 32.7881C78.7634 32.9465 79.5542 33.5801 79.5542 35.4809V38.6488C79.5542 40.708 79.7124 40.708 77.1818 40.8664C70.6973 41.1832 71.1717 33.4217 71.1717 31.2041C71.1717 25.977 72.437 21.7003 77.0236 21.8587C80.345 21.8587 82.4011 24.5514 83.35 27.0858C83.35 27.0858 83.5082 27.2442 83.6663 27.2442C83.8245 27.2442 83.9827 27.0858 83.9827 27.0858V20.9083L83.8245 20.5915C83.6663 20.5915 83.5082 20.7499 83.5082 20.7499C83.1919 21.5419 83.0337 21.8587 82.2429 21.8587C81.4521 21.8587 79.2379 20.4331 76.7073 20.4331C70.5391 20.4331 66.2688 25.3434 66.2688 31.2041C66.2688 36.4312 69.7483 41.8168 77.0236 41.8168C79.5542 41.8168 82.7174 41.0248 84.1408 39.916V36.1144C84.1408 33.5801 84.6153 32.9465 86.3551 32.7881C86.3551 32.7881 86.5132 32.6297 86.5132 32.4713C86.1969 32.3129 86.0387 32.3129 86.0387 32.3129Z" fill="#35302C"/>
<path d="M148.67 41.1833C147.088 41.0249 145.981 40.7081 145.981 38.8073V23.9179C145.981 21.8588 147.247 21.3836 148.67 21.2252C148.67 21.2252 148.828 21.0668 148.828 20.9084C148.828 20.75 148.67 20.75 148.67 20.75H138.706C138.706 20.75 138.548 20.75 138.548 21.0668C138.548 21.2252 138.706 21.2252 138.706 21.2252C139.971 21.3836 141.395 21.8588 141.395 23.9179V38.8073C141.395 40.7081 140.288 41.0249 138.706 41.1833L138.548 41.3417C138.548 41.5001 138.706 41.6585 138.706 41.6585H148.67C148.67 41.6585 148.828 41.5001 148.828 41.3417L148.67 41.1833Z" fill="#35302C"/>
<path d="M134.278 41.1833C132.222 41.0249 131.431 40.5497 131.589 38.1737V21.7004C133.487 21.8588 137.125 20.75 137.599 25.8187C137.599 25.8187 137.599 25.9771 137.915 25.9771C138.074 25.9771 138.232 25.8187 138.232 25.8187V20.75H120.36V25.8187C120.36 25.8187 120.36 25.9771 120.676 25.9771C120.992 25.9771 120.992 25.8187 120.992 25.8187C121.467 21.2252 124.63 21.7004 127.002 21.7004V38.0153C127.002 40.5497 126.053 40.8665 124.314 41.0249C124.314 41.0249 123.997 41.0249 123.997 41.1833C123.997 41.3417 124.155 41.6585 124.155 41.6585H134.278C134.278 41.6585 134.436 41.5001 134.278 41.1833Z" fill="#35302C"/>
<path d="M210.985 33.4219H202.919C202.919 32.6299 203.077 31.6795 203.393 30.8875C205.924 30.4123 208.296 29.3035 210.352 27.5611L220 19.3245L214.465 12.8302L207.98 18.3741L202.444 15.2062L198.49 22.1756C197.7 21.8588 197.067 21.2253 196.592 20.4333C197.383 18.0573 197.7 15.3645 197.225 12.6718L195.011 0L186.628 1.58397L188.21 9.97904L182.674 13.147L186.628 20.1165C185.996 20.5917 185.047 20.9085 184.098 20.9085C182.358 19.0077 180.302 17.4237 177.613 16.4733L165.751 12.1966L162.904 20.2749L170.812 23.126V29.4619H178.879C178.879 30.2539 178.72 31.2043 178.404 31.9963C175.874 32.4715 173.501 33.5802 171.445 35.3226L161.797 43.5593L167.333 50.0536L173.817 44.5097L179.353 47.6776L183.307 40.7081C184.098 41.0249 184.73 41.6585 185.205 42.4505C184.414 44.8265 184.098 47.5192 184.572 50.212L186.787 62.7254L195.169 61.1414L193.587 52.7463L199.123 49.5784L195.169 42.6089C195.802 42.1337 196.751 41.8169 197.7 41.8169C199.439 43.7177 201.495 45.3017 204.184 46.252L216.046 50.5288L218.893 42.4505L210.985 39.5993V33.4219ZM209.878 34.3722V39.441L207.031 38.3322C205.133 37.6986 203.868 36.4314 203.235 34.8474C203.235 34.689 203.235 34.5306 203.077 34.3722H209.878ZM214.465 14.2558L218.577 19.1661L209.72 26.6108C207.98 28.0363 206.082 28.9867 204.026 29.6203L210.036 19.3245L209.087 18.8493L214.465 14.2558ZM203.077 16.4733L207.347 18.8493L204.975 20.7501C203.393 22.0172 201.654 22.6508 200.072 22.334C199.914 22.334 199.756 22.1756 199.597 22.1756L203.077 16.4733ZM199.123 23.4428C199.439 23.6012 199.598 23.6012 199.914 23.6012C201.812 23.918 203.868 23.2844 205.608 21.8588L208.296 19.6413L208.613 19.7997L202.919 29.6203C202.919 29.7787 202.761 29.7787 202.761 29.9371C201.495 30.0955 200.072 30.0955 198.807 29.9371C197.858 29.7787 197.067 29.4619 196.118 29.1451C196.434 28.1947 196.751 27.2444 197.383 26.4524L199.123 23.4428ZM201.97 31.0459C201.97 31.8379 201.812 32.6299 201.812 33.4219H198.49C197.383 33.4219 196.434 33.5802 195.485 33.7386C195.485 32.4715 195.485 31.3627 195.802 30.0955C196.751 30.4123 197.541 30.7291 198.49 30.8875C199.281 31.0459 200.072 31.0459 200.705 31.0459C201.179 31.0459 201.654 31.0459 201.97 31.0459ZM198.016 22.9676L196.276 25.9772C195.802 26.9276 195.327 27.8779 195.011 28.8283C193.904 28.1947 192.955 27.5611 192.006 26.7692C192.797 26.1356 193.429 25.502 194.062 24.71C194.853 23.7596 195.485 22.8092 195.96 21.7004C196.751 22.0172 197.383 22.4924 198.016 22.9676ZM191.848 49.1032L192.48 52.4295L192.164 52.5879L186.47 42.7673C186.47 42.6089 186.312 42.6089 186.312 42.4505C186.787 41.1833 187.419 40.0745 188.368 38.9658C189.001 38.1738 189.633 37.5402 190.424 37.065C191.057 37.857 191.69 38.649 192.164 39.441L193.904 42.4505C193.746 42.6089 193.429 42.7673 193.271 43.0841C191.848 44.8265 191.373 46.8856 191.848 49.1032ZM186.945 33.2635C187.261 31.8379 187.419 30.4123 187.419 28.9867C188.843 28.6699 190.108 28.0363 191.373 27.2444C192.48 28.3531 193.587 29.1451 194.853 29.7787C194.536 31.2043 194.378 32.6299 194.378 34.0554C192.955 34.3722 191.69 35.0058 190.424 35.7978C189.317 34.689 188.21 33.897 186.945 33.2635ZM189.95 13.7806L189.317 10.4542L189.633 10.2958L195.327 20.1165C195.327 20.2749 195.485 20.2749 195.485 20.4333C195.011 21.7004 194.378 22.8092 193.429 23.918C192.797 24.71 192.164 25.3436 191.373 25.8188C190.741 25.0268 190.108 24.2348 189.633 23.4428L187.894 20.4333C188.052 20.2749 188.368 20.1165 188.526 19.7997C189.792 18.2157 190.266 16.1565 189.95 13.7806ZM187.736 2.37596L194.062 1.26718L196.118 12.6718C196.592 14.8894 196.434 17.1069 195.802 19.0077L189.792 8.71186L188.843 9.18705L187.736 2.37596ZM184.098 13.4638L188.368 11.0878L188.843 14.0974C189.159 15.9981 188.843 17.8989 187.736 19.1661C187.577 19.3245 187.577 19.3245 187.419 19.4829L184.098 13.4638ZM187.103 20.9085L188.843 23.918C189.317 24.8684 189.95 25.6604 190.582 26.4524C189.633 27.086 188.526 27.5611 187.261 27.8779C187.103 26.9276 186.945 25.9772 186.628 25.0268C186.154 23.918 185.679 22.8092 184.889 21.8588C185.679 21.7004 186.47 21.3836 187.103 20.9085ZM170.812 22.1756L164.17 19.6413L166.384 13.6222L177.297 17.5821C179.353 18.3741 181.251 19.4829 182.674 21.0669H170.812V22.1756ZM171.92 28.5115V23.4428L174.766 24.5516C176.664 25.1852 177.93 26.4524 178.562 28.0363C178.562 28.1947 178.562 28.3531 178.72 28.5115H171.92ZM175.083 23.4428L171.761 22.334V22.0172H183.149C183.307 22.0172 183.307 22.0172 183.465 22.0172C184.256 23.126 184.889 24.2348 185.363 25.502C185.679 26.4524 185.838 27.2444 185.996 28.1947C185.047 28.3531 184.098 28.5115 182.991 28.5115H179.669V28.3531C179.669 28.0363 179.511 27.8779 179.511 27.5611C178.879 25.6604 177.297 24.2348 175.083 23.4428ZM186.154 29.1451C186.154 30.4123 186.154 31.5211 185.838 32.7883C184.889 32.4715 184.098 32.1547 183.149 31.9963C181.884 31.8379 180.777 31.8379 179.511 31.8379C179.828 31.0459 179.828 30.2539 179.828 29.4619H183.149C184.256 29.4619 185.205 29.3035 186.154 29.1451ZM167.333 48.628L163.221 43.7177L172.078 36.273C173.817 34.8474 175.715 33.897 177.771 33.2635L171.761 43.5593L172.71 44.0345L167.333 48.628ZM178.72 46.4104L174.45 44.0345L176.823 42.1337C178.404 40.8665 179.986 40.2329 181.725 40.5497C181.884 40.5497 182.042 40.7081 182.2 40.7081L178.72 46.4104ZM182.674 39.5993C182.358 39.441 182.2 39.441 181.884 39.441C181.567 39.441 181.251 39.2826 180.777 39.2826C179.195 39.2826 177.455 39.9161 176.032 41.1833L173.343 43.4009L173.185 43.2425L178.879 33.4219C178.879 33.2635 179.037 33.2635 179.037 33.1051C180.302 32.9467 181.725 32.9467 182.991 33.1051C183.94 33.2635 184.731 33.5802 185.679 33.897C185.363 34.8474 185.047 35.7978 184.414 36.5898L182.674 39.5993ZM183.623 40.0745L185.363 37.065C185.838 36.1146 186.312 35.1642 186.628 34.2138C187.736 34.8474 188.684 35.481 189.633 36.273C188.843 36.9066 188.21 37.5402 187.577 38.3322C186.787 39.2826 186.154 40.2329 185.679 41.3417C185.047 40.8665 184.414 40.3913 183.623 40.0745ZM193.904 60.5078L187.577 61.6166L185.521 50.212C185.047 47.9944 185.205 45.7769 185.838 43.8761L191.848 54.1719L192.797 53.6967L193.904 60.5078ZM197.7 49.42L193.429 51.796L192.955 48.7864C192.638 46.8856 192.955 44.9849 194.062 43.7177C194.22 43.5593 194.22 43.5593 194.378 43.4009L197.7 49.42ZM194.695 41.9753L192.955 38.9658C192.48 38.0154 191.848 37.2234 191.215 36.4314C192.164 35.7978 193.271 35.3226 194.536 35.0058C194.695 35.9562 194.853 36.9066 195.169 37.857C195.644 38.9658 196.118 40.0745 196.909 41.0249C196.118 41.3417 195.327 41.6585 194.695 41.9753ZM198.174 41.0249C197.383 39.9161 196.751 38.8074 196.276 37.5402C195.96 36.5898 195.802 35.7978 195.644 34.8474C196.592 34.689 197.541 34.5306 198.649 34.5306H202.128C202.128 34.8474 202.286 35.0058 202.286 35.3226C202.919 37.2234 204.5 38.649 206.715 39.441L210.036 40.5497V40.8665H198.649C198.332 40.8665 198.332 41.0249 198.174 41.0249ZM217.47 43.4009L215.255 49.42L204.342 45.4601C202.286 44.6681 200.388 43.5593 198.965 41.9753H210.827V40.8665L217.47 43.4009Z" fill="#35302C"/>
</g>
<defs>
<clipPath id="clip0">
<rect width="220" height="62.7254" fill="white"/>
</clipPath>
</defs>
</svg>
