<?xml version="1.0" encoding="utf-8"?>
<!-- Generator: Adobe Illustrator 25.3.0, SVG Export Plug-In . SVG Version: 6.00 Build 0)  -->
<svg version="1.1" id="Layer_1" xmlns="http://www.w3.org/2000/svg" xmlns:xlink="http://www.w3.org/1999/xlink" x="0px" y="0px"
	 viewBox="0 0 128 128" style="enable-background:new 0 0 128 128;" xml:space="preserve">
<path d="M64,1C29.2,1,1,29.2,1,64s28.2,63,63,63s63-28.2,63-63S98.8,1,64,1z M64,122.4C31.9,122.4,5.6,96.1,5.6,64S31.9,5.6,64,5.6
	s58.4,26.3,58.4,58.4S96.1,122.4,64,122.4z M87.5,61.8L53.8,42c-0.2-0.2-1-0.2-1.2-0.2c-0.5,0-1,0-1.5,0.2c-0.8,0.5-1.5,1.5-1.5,2.5
	v39.2c0,0.8,0.8,1.8,1.5,2.2s2,0.5,2.8,0l33.8-19.5c0.8-0.5,1.2-1.5,1.2-2.5S88.2,62.2,87.5,61.8z"/>
</svg>
